<?xml version="1.0" encoding="UTF-8" standalone="no"?>
<svg
   id="svg"
   version="1.1"
   width="1200"
   height="1200"
   viewBox="0 0 1200 1200"
   sodipodi:docname="IMMLogoMaybeFinal.svg"
   inkscape:version="1.4.2 (ebf0e940d0, 2025-05-08)"
   xml:space="preserve"
   inkscape:export-filename="IntermountainMeshLogoEdit10.png"
   inkscape:export-xdpi="600"
   inkscape:export-ydpi="600"
   xmlns:inkscape="http://www.inkscape.org/namespaces/inkscape"
   xmlns:sodipodi="http://sodipodi.sourceforge.net/DTD/sodipodi-0.dtd"
   xmlns:xlink="http://www.w3.org/1999/xlink"
   xmlns="http://www.w3.org/2000/svg"
   xmlns:svg="http://www.w3.org/2000/svg"
   xmlns:shaper="http://www.shapertools.com/namespaces/shaper"><defs
     id="defs1"><rect
       x="148.49242"
       y="-26.870056"
       width="319.61227"
       height="33.234016"
       id="rect2" /></defs><sodipodi:namedview
     id="namedview1"
     pagecolor="#ffffff"
     bordercolor="#000000"
     borderopacity="0.25"
     inkscape:showpageshadow="2"
     inkscape:pageopacity="0.0"
     inkscape:pagecheckerboard="0"
     inkscape:deskcolor="#d1d1d1"
     inkscape:zoom="8"
     inkscape:cx="708.125"
     inkscape:cy="954.375"
     inkscape:window-width="1920"
     inkscape:window-height="1011"
     inkscape:window-x="0"
     inkscape:window-y="0"
     inkscape:window-maximized="1"
     inkscape:current-layer="layer1"
     showguides="true"><sodipodi:guide
       position="250,250"
       orientation="-1,0"
       id="guide11"
       inkscape:locked="false"
       inkscape:label=""
       inkscape:color="rgb(0,134,229)" /><sodipodi:guide
       position="250,250"
       orientation="0,1"
       id="guide12"
       inkscape:locked="false"
       inkscape:label=""
       inkscape:color="rgb(0,134,229)" /></sodipodi:namedview><g
     inkscape:groupmode="layer"
     id="layer3"
     inkscape:label="Background Layer"
     style="display:none"><rect
       style="display:none;opacity:1;fill:#67ea94;fill-opacity:1;stroke:none;stroke-width:6.124;stroke-linecap:round;stroke-dasharray:none;stroke-opacity:1"
       id="rect21"
       width="612"
       height="584"
       x="-61"
       y="-40"
       inkscape:label="RectangleBackground" /></g><g
     inkscape:groupmode="layer"
     id="layer2"
     inkscape:label="Text Layer"
     style="display:none"><path
       style="display:none;opacity:1;fill:none;fill-opacity:1;stroke:#2c2d3c;stroke-width:5.07911;stroke-linecap:round;stroke-dasharray:none;stroke-opacity:1"
       id="path13"
       sodipodi:type="arc"
       sodipodi:cx="250"
       sodipodi:cy="249.99997"
       sodipodi:rx="196.06654"
       sodipodi:ry="196.06654"
       sodipodi:start="0.0065747108"
       sodipodi:end="6.2831853"
       sodipodi:open="true"
       sodipodi:arc-type="arc"
       d="M 446.06231,251.28904 A 196.06654,196.06654 0 0 1 249.03319,446.06413 196.06654,196.06654 0 0 1 53.934516,249.35543 196.06654,196.06654 0 0 1 250.32227,53.933691 196.06654,196.06654 0 0 1 446.06654,249.99997"
       inkscape:label="TextRingBase" /><path
       style="display:none;opacity:1;fill:#ddff55;fill-opacity:1;stroke:none;stroke-width:5.88907;stroke-linecap:round;stroke-dasharray:none;stroke-opacity:1"
       id="path12"
       sodipodi:type="arc"
       sodipodi:cx="-249.99113"
       sodipodi:cy="-249.99109"
       sodipodi:rx="207.66212"
       sodipodi:ry="207.66212"
       sodipodi:start="0.0065747108"
       sodipodi:end="6.2831853"
       sodipodi:open="true"
       sodipodi:arc-type="arc"
       d="m -42.333498,-248.62578 a 207.66212,207.66212 0 0 1 -208.681622,206.294291 207.66212,207.66212 0 0 1 -206.63702,-208.342261 207.66212,207.66212 0 0 1 208.00233,-206.97918 207.66212,207.66212 0 0 1 207.3208,207.66184"
       inkscape:transform-center-x="0.0039884022"
       inkscape:transform-center-y="-0.0045433763"
       transform="matrix(0,-1,-1,0,0,0)"
       inkscape:label="BottomTextCircle" /><path
       id="path10"
       style="display:none;opacity:1;fill:#ff8080;stroke-width:4.86274;stroke-linecap:round"
       d="M 248.7834,435.04047 A 185.04446,185.04446 0 0 1 64.957784,249.08755 185.04446,185.04446 0 0 1 250.60831,64.956537 185.04446,185.04446 0 0 1 435.04421,250.30415 185.04446,185.04446 0 0 1 250,435.04446"
       inkscape:label="TopTextCircle" /><path
       style="display:none;fill:#ff7f2a;fill-opacity:1;stroke-width:2.99389;stroke-linecap:round"
       id="path2"
       sodipodi:type="arc"
       sodipodi:cx="-249.99232"
       sodipodi:cy="-249.99196"
       sodipodi:rx="228.39574"
       sodipodi:ry="228.39574"
       sodipodi:start="0.0065747108"
       sodipodi:end="6.2831853"
       sodipodi:open="true"
       sodipodi:arc-type="arc"
       d="M -21.601525,-248.49033 A 228.39574,228.39574 0 0 1 -251.11855,-21.598999 228.39574,228.39574 0 0 1 -478.38683,-250.74277 228.39574,228.39574 0 0 1 -249.61692,-478.38739 228.39574,228.39574 0 0 1 -21.596588,-249.99196"
       inkscape:label="MemeTextCircle"
       inkscape:transform-center-x="0.011984918"
       inkscape:transform-center-y="0.0040447775"
       transform="matrix(0,-1,-1,0,0,0)" /></g><g
     inkscape:groupmode="layer"
     id="layer1"
     inkscape:label="Badge Layer"
     style="display:inline"><text
       xml:space="preserve"
       id="text2"
       style="font-style:normal;font-variant:normal;font-weight:500;font-stretch:normal;font-size:13.3333px;font-family:Ubuntu;-inkscape-font-specification:'Ubuntu, Medium';font-variant-ligatures:normal;font-variant-caps:normal;font-variant-numeric:normal;font-variant-east-asian:normal;text-align:center;letter-spacing:2.06502px;writing-mode:lr-tb;direction:ltr;text-anchor:middle;white-space:pre;display:none;fill:#2c2d3c;fill-opacity:1;stroke-width:2.929;stroke-linecap:round"
       inkscape:transform-center-x="1.2170953"
       inkscape:transform-center-y="-209.65438"
       inkscape:label="MemeText"
       transform="translate(350,342.70139)"><textPath
         xlink:href="#path2"
         startOffset="50%"
         id="textPath2">*flatlanders not welcome</textPath></text><g
       id="g5"><g
         id="g3"><path
           id="path1"
           style="display:inline;fill:#67ea94;stroke-width:11.8638;stroke-linecap:round"
           inkscape:label="CircleBackground"
           d="M 1180.0877,603.84065 A 580,579.96368 0 0 1 597.24023,1179.9842 580,579.96368 0 0 1 20.103354,598.12105 580,579.96368 0 0 1 601.05355,20.064687 580,579.96368 0 0 1 1180.1002,600.02759" /><path
           style="baseline-shift:baseline;display:inline;overflow:visible;opacity:1;vector-effect:none;fill:#2c2d3c;stroke-linecap:round;enable-background:accumulate;stop-color:#000000;stop-opacity:1"
           d="m 1064.2383,330.88672 a 6.8859,6.8859 0 0 0 -5.2305,0.65039 6.8859,6.8859 0 0 0 -2.5859,9.38867 c 44.856,78.98872 68.4375,168.26642 68.4375,259.10156 a 6.8859,6.8859 0 0 0 6.8847,6.88672 6.8859,6.8859 0 0 0 6.8868,-6.88672 c 0,-93.21866 -24.2014,-184.84105 -70.2344,-265.90234 a 6.8859,6.8859 0 0 0 -4.1582,-3.23828 z"
           id="path14" /><path
           style="baseline-shift:baseline;display:inline;overflow:visible;opacity:1;vector-effect:none;fill:#2c2d3c;stroke-linecap:round;enable-background:accumulate;stop-color:#000000;stop-opacity:1"
           d="m 135.96289,330.88672 a 6.8859,6.8859 0 0 0 -4.1582,3.23828 C 86.067922,414.66459 61.876746,505.6396 61.572266,598.25781 60.851991,817.34466 192.98835,1015.0689 395.69336,1098.2266 a 6.8859,6.8859 0 0 0 8.98437,-3.7578 6.8859,6.8859 0 0 0 -3.75586,-8.9844 C 203.36331,1004.438 74.641765,811.82635 75.34375,598.30273 75.640445,508.05271 99.211938,419.40612 143.7793,340.92578 a 6.8859,6.8859 0 0 0 -2.58789,-9.38867 6.8859,6.8859 0 0 0 -5.22852,-0.65039 z"
           id="path20" /><path
           style="baseline-shift:baseline;display:inline;overflow:visible;opacity:1;vector-effect:none;fill:#2c2d3c;stroke-linecap:round;enable-background:accumulate;stop-color:#000000;stop-opacity:1"
           d="m 1131.7773,596.63672 a 6.8859,6.8859 0 0 0 -6.9296,6.83984 c -1.3916,211.63519 -129.75388,401.67694 -325.5684,482.00784 a 6.8859,6.8859 0 0 0 -3.75782,8.9844 6.8859,6.8859 0 0 0 8.98438,3.7578 c 200.91674,-82.424 332.68544,-277.50771 334.11324,-494.65824 a 6.8859,6.8859 0 0 0 -6.8418,-6.93164 z"
           id="path18" /><path
           d="m 186.46605,447.80926 6.10372,-21.31947 14.27451,4.08676 -1.15381,4.03009 -9.47532,-2.71276 -1.27711,4.46078 8.42934,2.4133 -1.1538,4.03009 -8.42934,-2.4133 -2.519,8.79851 z m 29.15132,-15.79817 q 4.9132,0.88352 7.21011,3.1173 2.30257,2.2023 1.63994,5.88719 -0.41344,2.29912 -1.74479,3.55532 -1.29419,1.23037 -3.42562,1.69243 0.51414,0.9378 1.04596,2.13889 0.53748,1.16959 1.02082,2.4595 0.52049,1.26407 0.95534,2.6428 0.44051,1.34723 0.7922,2.64598 l -5.51159,-0.99112 q -0.40584,-1.17843 -0.83751,-2.39402 -0.40018,-1.20993 -0.87468,-2.36819 -0.44299,-1.1526 -0.90865,-2.17923 -0.45999,-1.05811 -0.95396,-1.92726 l -2.4251,-0.43609 -1.43288,7.96819 -4.91319,-0.88352 3.86821,-21.51097 q 1.66287,-0.0261 3.38625,0.15375 1.75487,0.18552 3.10914,0.42905 z m -0.4698,4.23979 q -0.53541,-0.0963 -0.982,-0.14408 -0.4151,-0.0421 -0.7987,-0.0786 l -1.06475,5.92103 1.38577,0.24919 q 2.77155,0.4984 4.09295,0.0207 1.3214,-0.47767 1.62157,-2.1469 0.28884,-1.60623 -0.82052,-2.48851 -1.0722,-0.9081 -3.43432,-1.33286 z m 12.26274,20.28459 1.68219,-22.1121 14.93285,1.13602 -0.31799,4.17992 -9.95523,-0.75735 -0.33013,4.33946 8.83846,0.67239 -0.31071,4.0842 -8.83846,-0.67239 -0.40537,5.3286 10.68911,0.81318 -0.31799,4.17993 z m 23.68112,-9.90113 q 0.058,1.63096 0.48837,2.92849 0.46236,1.29639 1.23201,2.22963 0.80049,0.90012 1.90599,1.37314 1.10551,0.47301 2.51262,0.42298 1.37513,-0.0489 2.44425,-0.59923 1.1011,-0.55148 1.80366,-1.50505 0.7334,-0.98668 1.07054,-2.3115 0.36911,-1.32595 0.31112,-2.95692 -0.058,-1.63097 -0.52035,-2.92736 -0.43152,-1.3295 -1.23201,-2.22963 -0.76965,-0.93324 -1.90713,-1.40512 -1.10551,-0.47301 -2.48064,-0.42412 -1.40711,0.05 -2.47509,0.63236 -1.06912,0.55033 -1.80252,1.53702 -0.70256,0.95357 -1.07054,2.3115 -0.33714,1.32482 -0.28028,2.92381 z m 16.91731,-0.60154 q 0.083,2.33453 -0.42554,4.24181 -0.50968,1.87529 -1.51499,3.31993 -0.97332,1.44349 -2.37943,2.42208 -1.40611,0.97858 -3.11824,1.45572 0.18264,0.63391 0.73994,0.99834 0.55844,0.39641 1.39901,0.62268 0.84057,0.22627 1.93244,0.31553 1.12384,0.0881 2.40644,0.13858 l -0.89372,3.68208 q -2.49784,-0.007 -4.30349,-0.3593 -1.77253,-0.32122 -3.04476,-0.98043 -1.24025,-0.66034 -2.01217,-1.65754 -0.73995,-0.99834 -1.17146,-2.32785 -1.99185,-0.18533 -3.71634,-0.95654 -1.72563,-0.80319 -3.02401,-2.19793 -1.29838,-1.39475 -2.07358,-3.38446 -0.77519,-1.98971 -0.86616,-4.54809 -0.1012,-2.8462 0.71805,-5.02069 0.81811,-2.20646 2.26885,-3.73098 1.48272,-1.52565 3.43932,-2.33168 1.98857,-0.80718 4.19518,-0.88564 2.27056,-0.0807 4.31144,0.58317 2.04088,0.66389 3.59624,2.08152 1.55536,1.41763 2.49613,3.56155 0.93964,2.11194 1.04085,4.95814 z m 21.91375,1.10379 q -0.17321,-0.91169 -0.7133,-1.52567 -0.54607,-0.64542 -1.64166,-0.92585 -1.0956,-0.28043 -2.84102,-0.2094 -1.74541,0.071 -4.3233,0.56081 -0.20966,-2.9894 -0.56299,-6.04922 -0.35334,-3.05983 -0.72931,-5.72448 l 11.78912,-2.23983 0.74661,3.92971 -7.85941,1.49322 q 0.15215,1.1437 0.26091,2.23049 0.13423,1.04939 0.18924,1.85325 4.64962,-0.55766 7.17122,0.88503 2.54706,1.40528 3.16824,4.6748 0.2867,1.509 -0.003,2.89948 -0.28955,1.39049 -1.17924,2.53669 -0.88969,1.14621 -2.42291,1.99124 -1.50178,0.83905 -3.67098,1.25118 -0.84882,0.16127 -1.81584,0.21471 -0.92961,0.0789 -1.8457,0.0575 -0.87868,0.004 -1.60614,-0.0531 -0.72747,-0.0572 -1.14056,-0.17418 l 0.11416,-4.02809 q 0.85164,0.19649 2.20628,0.29742 1.34867,0.0695 3.14062,-0.27097 2.1692,-0.41213 2.98249,-1.4461 0.80733,-1.06542 0.58633,-2.22861 z m 6.12772,-12.5886 q 0.78537,-0.62595 1.60566,-1.36188 0.84218,-0.77554 1.60514,-1.59485 0.7541,-0.85006 1.40709,-1.70428 0.67487,-0.89384 1.14754,-1.796 l 3.19786,-0.92156 6.1408,21.30881 -4.58155,1.32032 -4.42173,-15.34358 q -0.74524,0.88081 -1.7323,1.7314 -0.99592,0.81984 -1.96579,1.49897 z"
           id="text11"
           style="font-weight:bold;font-size:32px;font-family:Ubuntu;-inkscape-font-specification:'Ubuntu, Bold';text-align:center;letter-spacing:1.1px;text-anchor:middle;fill:#2c2d3c;stroke-width:3.8;stroke-linecap:round"
           inkscape:label="BottomText"
           inkscape:transform-center-x="0.12711318"
           inkscape:transform-center-y="-456.45601"
           transform="matrix(2.7115501,0,0,2.7113804,-77.787307,-77.817555)"
           aria-label="FREQ 51" /><path
           d="m 72.475692,143.08101 2.626841,-4.24497 18.857464,11.66924 -2.62684,4.24497 z m 33.770628,-9.72103 q -4.32733,-0.60976 -8.792199,-0.88157 -4.464871,-0.27182 -8.793637,-0.0368 l 11.541066,8.82421 -2.993236,3.91481 -17.616645,-13.46955 2.468446,-3.22845 q 1.480295,-0.19748 3.477958,-0.28135 1.997664,-0.0839 4.19271,-0.0571 2.189062,-0.0181 4.485792,0.0864 2.271309,0.0851 4.343751,0.21949 l -10.397125,-7.94956 3.01267,-3.94023 17.616649,13.46955 z m 2.46789,-35.225035 3.03408,2.984615 -4.69011,4.76783 12.77507,12.56679 -3.50075,3.55877 -12.77507,-12.56679 -4.6901,4.76784 -3.034078,-2.98461 z m 19.0785,12.732905 -13.9817,-17.212984 11.62435,-9.442189 2.64301,3.253826 -7.74957,6.294792 2.74388,3.378018 6.88023,-5.588646 2.58248,3.179311 -6.88023,5.588642 3.36933,4.14801 8.32085,-6.758831 2.64301,3.253831 z m 9.55331,-35.103826 q 4.21307,-2.677703 7.41586,-2.589993 3.18564,0.0607 5.19391,3.220506 1.25303,1.971501 1.12438,3.797419 -0.11882,1.781746 -1.37396,3.565305 1.01342,0.341719 2.21818,0.865163 1.1876,0.496437 2.41685,1.118066 1.23909,0.577458 2.49282,1.297272 1.23657,0.692808 2.37495,1.410104 l -4.7262,3.003833 q -1.09673,-0.592103 -2.23763,-1.194048 -1.1139,-0.61911 -2.24748,-1.149877 -1.10658,-0.547931 -2.14449,-0.987835 -1.05508,-0.466911 -2.00717,-0.77178 l -2.07953,1.321686 4.34268,6.832738 -4.21307,2.677703 -11.72353,-18.445691 q 1.2057,-1.145472 2.59541,-2.180396 1.41672,-1.05209 2.57802,-1.790175 z m 2.52597,3.437431 q -0.45912,0.291801 -0.82005,0.559115 -0.33392,0.250148 -0.64084,0.483132 l 3.22698,5.077292 1.1883,-0.75525 q 2.3766,-1.510499 3.02524,-2.756911 0.64864,-1.246412 -0.2611,-2.677776 -0.8754,-1.377351 -2.28913,-1.275069 -1.40388,0.05811 -3.4294,1.345467 z m 19.31072,-15.554347 q 0.96016,0.724574 2.27718,1.849635 1.33299,1.082713 2.81387,2.414613 1.49685,1.289553 3.00412,2.67976 1.50727,1.390207 2.83472,2.615922 -0.0447,-1.806243 -0.0943,-3.856142 -0.0496,-2.049898 -0.0596,-4.012336 0.006,-2.004786 0.0432,-3.707609 0.0532,-1.74517 0.14255,-2.944723 l 4.13979,-1.873523 q 1.20191,1.879649 2.5698,4.281294 1.38386,2.359297 2.78581,4.991404 1.4179,2.58976 2.7907,5.23506 1.40194,2.632107 2.60045,4.969913 l -4.43132,2.005462 q -1.42004,-2.904916 -3.13587,-6.308205 -1.71584,-3.40329 -3.60382,-6.798918 0.0294,1.461933 0.0609,3.239023 0.0315,1.777089 0.063,3.554179 0.0607,1.763896 0.0977,3.397984 0.0239,1.604934 0.0511,2.751711 l -3.17772,1.438128 q -0.84354,-0.77735 -2.03353,-1.854532 -1.20318,-1.106335 -2.51744,-2.302896 -1.28511,-1.209755 -2.59937,-2.406316 -1.31426,-1.196561 -2.39316,-2.183516 1.30492,3.659504 2.72922,7.194732 1.42429,3.535228 2.66941,6.519307 l -4.43132,2.005462 q -0.96528,-2.443357 -2.04654,-5.220596 -1.05211,-2.790433 -2.09102,-5.551712 -1.02295,-2.803626 -1.9112,-5.387219 -0.87229,-2.62594 -1.49113,-4.769466 z m 32.22961,-0.933978 q 0.44029,1.571486 1.16401,2.73124 0.75453,1.151121 1.72224,1.876963 0.98988,0.686395 2.17567,0.885884 1.18579,0.199489 2.54158,-0.180369 1.32498,-0.371225 2.2345,-1.157767 0.94034,-0.795174 1.39869,-1.887327 0.48053,-1.131599 0.49634,-2.498548 0.0466,-1.375582 -0.39368,-2.947068 -0.44029,-1.571487 -1.19482,-2.722608 -0.73235,-1.190567 -1.72224,-1.876962 -0.9677,-0.725842 -2.1843,-0.916698 -1.18579,-0.199488 -2.51077,0.171736 -1.35579,0.379858 -2.25668,1.197213 -0.90953,0.786542 -1.39006,1.918141 -0.45835,1.092152 -0.49633,2.498548 -0.0158,1.366949 0.41585,2.907622 z m 16.30032,-4.566927 q 0.76835,2.742398 0.52344,5.070808 -0.22273,2.288962 -1.24303,4.103505 -1.02893,1.78373 -2.80243,3.04496 -1.74268,1.252597 -3.99206,1.882815 -2.18776,0.612953 -4.32757,0.44813 -2.13981,-0.164822 -3.97653,-1.14567 -1.84536,-1.011662 -3.25574,-2.843069 -1.41902,-1.86222 -2.18737,-4.604618 -0.76834,-2.742397 -0.48399,-5.048627 0.27573,-2.337042 1.32683,-4.160218 1.08193,-1.83181 2.7938,-3.075773 1.74268,-1.252597 3.86881,-1.848283 2.18776,-0.612952 4.32757,-0.44813 2.13981,0.164822 3.98516,1.176484 1.84536,1.011662 3.26438,2.873882 1.41038,1.831407 2.17873,4.573804 z m 16.85409,9.017778 q -2.31386,0.320846 -4.08169,-0.08015 -1.77223,-0.432688 -3.03984,-1.41994 -1.24031,-1.023344 -1.99891,-2.533463 -0.7313,-1.546211 -0.9994,-3.479711 l -1.89431,-13.661291 4.94469,-0.685643 1.83717,13.249233 q 0.1846,1.331263 0.60172,2.242608 0.44443,0.875254 1.03508,1.407169 0.61796,0.495824 1.38215,0.648309 0.79588,0.148091 1.68339,0.02503 1.80671,-0.250524 2.76227,-1.51374 0.98725,-1.267611 0.61806,-3.930136 l -1.83718,-13.249233 4.94469,-0.685643 1.89431,13.661291 q 0.26811,1.9335 -0.0466,3.624751 -0.31469,1.691251 -1.26145,3.01786 -0.95116,1.294912 -2.57488,2.166185 -1.62372,0.871272 -3.96928,1.196513 z m 29.7895,-2.234333 q -2.16429,-3.796502 -4.68007,-7.495126 -2.51578,-3.698625 -5.34933,-6.979547 l 0.0775,14.527793 -4.92793,0.0263 -0.11836,-22.175684 4.06394,-0.02169 q 1.06162,1.050349 2.3498,2.579495 1.28818,1.529146 2.60956,3.282118 1.3532,1.720802 2.67526,3.601772 1.32189,1.84897 2.48309,3.570797 l -0.0699,-13.087814 4.95993,-0.02647 0.11836,22.175684 z m 29.22946,-19.679469 -0.47558,4.229345 -6.64611,-0.747337 -2.00243,17.80777 -4.96074,-0.557821 2.00243,-17.807769 -6.64611,-0.747337 0.47558,-4.229345 z m 13.64936,25.739255 q -0.0846,-1.201604 -0.24838,-2.487114 -0.1326,-1.27833 -0.2652,-2.556661 l -8.41977,-1.938291 q -0.6782,1.091681 -1.38757,2.176182 -0.6782,1.091681 -1.27966,2.13535 l -5.05187,-1.162974 q 2.02022,-3.212673 3.79367,-5.923927 1.77344,-2.711254 3.40555,-5.093837 1.66329,-2.375405 3.1996,-4.484509 1.57468,-2.133108 3.18301,-4.127122 l 4.64647,1.069649 q 0.54339,2.489355 1.02688,5.096268 0.49067,2.575729 0.91673,5.432117 0.45724,2.863567 0.86671,6.077341 0.40946,3.213773 0.82161,6.986397 z m -1.98361,-18.057261 q -0.26361,0.431871 -0.7621,1.170876 -0.49849,0.739005 -1.14797,1.705948 -0.64948,0.966943 -1.44276,2.13064 -0.7621,1.170876 -1.5841,2.45931 l 6.14332,1.414234 q -0.1759,-1.518157 -0.34933,-2.904399 -0.17344,-1.386241 -0.36594,-2.547013 -0.16131,-1.153594 -0.2865,-2.036175 -0.1252,-0.882582 -0.20462,-1.393421 z m 17.93428,-0.300139 4.73563,1.579204 -7.01531,21.03712 -4.73562,-1.579204 z m 17.23331,30.626274 q -0.40267,-4.351488 -1.16587,-8.759037 -0.7632,-4.407549 -1.98834,-8.565974 l -5.93076,13.262312 -4.49867,-2.011755 9.0529,-20.244013 3.70994,1.659045 q 0.53291,1.395091 1.07435,3.319807 0.54145,1.924717 1.02066,4.066981 0.52149,2.126116 0.94845,4.38523 0.44003,2.229901 0.78624,4.277637 l 5.34291,-11.947765 4.52788,2.024818 -9.0529,20.244012 z m 34.63341,-5.705723 q -0.14101,1.194584 -0.44766,2.899366 -0.26205,1.697189 -0.66459,3.647814 -0.35792,1.943033 -0.79748,3.945864 -0.43956,2.002831 -0.82786,3.76741 1.53682,-0.95011 3.28152,-2.027407 1.7447,-1.077298 3.43386,-2.076287 1.73379,-1.006581 3.22266,-1.833769 1.53349,-0.834781 2.61419,-1.36298 l 3.7066,2.628514 q -1.01621,1.986199 -2.39931,4.379124 -1.33848,2.385332 -2.90335,4.923955 -1.52026,2.53103 -3.11124,5.051141 -1.56488,2.53862 -2.97834,4.75309 l -3.96762,-2.81362 q 1.79127,-2.69191 3.86352,-5.890694 2.07226,-3.198784 4.05102,-6.542327 -1.2473,0.763124 -2.7656,1.687132 -1.51831,0.924007 -3.03661,1.848014 -1.49221,0.942518 -2.88426,1.799135 -1.37355,0.830515 -2.34984,1.432758 l -2.8452,-2.017663 q 0.24541,-1.120541 0.57484,-2.691482 0.34795,-1.597045 0.71773,-3.335521 0.39589,-1.719966 0.76567,-3.458443 0.36978,-1.738476 0.67738,-3.167985 -2.50082,2.97333 -4.8341,5.987008 -2.33328,3.013678 -4.28117,5.594527 l -3.96762,-2.813622 q 1.62228,-2.066385 3.47429,-4.401391 1.87811,-2.316494 3.73771,-4.606886 1.90421,-2.297984 3.68644,-4.368636 1.82684,-2.078243 3.3651,-3.694228 z m 6.24391,32.520375 15.16046,-16.184421 10.92973,10.238231 -2.86583,3.05939 -7.28649,-6.82548 -2.97521,3.17616 6.4691,6.05981 -2.80021,2.98933 -6.46909,-6.05981 -3.65339,3.90014 7.82364,7.32865 -2.86583,3.05939 z m 21.53914,16.3804 q 0.68784,0.80126 1.24697,1.20693 0.60424,0.4091 1.09373,0.53715 0.51378,0.10721 0.93364,-0.0424 0.41986,-0.14956 0.80835,-0.48306 0.82553,-0.70869 0.6927,-1.94423 -0.10855,-1.25638 -1.10308,-3.69219 -0.41732,-1.07565 -0.7618,-2.21384 -0.32021,-1.15904 -0.32454,-2.29401 0.0199,-1.15583 0.46686,-2.25644 0.47119,-1.12145 1.63664,-2.12195 1.16546,-1.0005 2.4633,-1.35552 1.32213,-0.37586 2.66554,-0.13739 1.34342,0.23847 2.663,1.08783 1.34386,0.82853 2.57365,2.26107 1.45906,1.69963 2.15789,3.25058 0.69883,1.55096 0.94962,2.7274 l -3.92445,1.47117 q -0.24027,-1.01679 -0.72356,-2.12017 -0.43817,-1.09994 -1.48036,-2.31396 -1.16725,-1.3597 -2.07683,-1.63321 -0.86445,-0.27007 -1.64143,0.39693 -0.46132,0.39603 -0.58938,0.88553 -0.12805,0.48949 -0.0616,1.10726 0.11154,0.6212 0.33074,1.31868 0.26432,0.70092 0.58773,1.51981 0.63996,1.72801 0.9881,3.1161 0.37243,1.36725 0.28307,2.54048 -0.0685,1.19751 -0.64735,2.24268 -0.57884,1.04518 -1.79286,2.08737 -2.3552,2.02185 -5.08372,1.49634 -2.70423,-0.54634 -5.55983,-3.87275 -0.95882,-1.1169 -1.58435,-2.14034 -0.64982,-1.00259 -1.06005,-1.87347 -0.38938,-0.8466 -0.60858,-1.54408 -0.19835,-0.67321 -0.29592,-1.17988 l 3.9279,-1.51629 q 0.23339,1.10703 0.83143,2.49146 0.64317,1.38787 2.01886,2.99037 z m 31.72376,11.80157 2.7759,4.14903 -18.43125,12.33142 -2.7759,-4.14903 7.81931,-5.23151 -4.66209,-6.96824 -7.81932,5.23152 -2.7759,-4.14903 18.43125,-12.33142 2.7759,4.14903 -7.04802,4.71547 4.66209,6.96824 z"
           id="text10"
           style="font-weight:bold;font-size:32px;font-family:Ubuntu;-inkscape-font-specification:'Ubuntu, Bold';text-align:center;letter-spacing:1.1px;text-anchor:middle;fill:#2c2d3c;stroke-width:3.8;stroke-linecap:round"
           inkscape:label="TopText"
           transform="matrix(2.7115501,0,0,2.7113804,-77.787307,-77.817555)"
           aria-label="INTERMOUNTAIN MESH" /><path
           id="path0"
           style="display:inline;fill:#2c2d3c;fill-opacity:1;stroke:none;stroke-width:0;stroke-linecap:round;stroke-dasharray:none;stroke-opacity:1"
           inkscape:label="BadgeDecal"
           d="m 514.60694,198.46787 c -6.69675,-0.0279 -14.15002,9.75934 -30.75916,31.39269 -12.54669,16.33959 -37.05821,47.6961 -54.46931,69.67507 -17.41504,21.9829 -37.14865,47.0514 -43.86673,55.72098 -6.71412,8.66566 -12.56605,15.73176 -12.99109,15.69634 -0.429,-0.0355 -6.94786,-7.66656 -14.48453,-16.94612 -21.94493,-27.03195 -16.38718,-30.32004 -72.51278,43.01139 C 233.91191,464.4567 149.16496,560.4122 126.09796,578.58539 a 474.48276,474.45306 0 0 0 -0.48195,21.44214 474.48276,474.45306 0 0 0 0,0.67784 l 14.98769,-13.70518 c 47.79785,-43.7218 102.31096,-106.34365 166.62261,-191.39062 4.15601,-5.49767 12.88051,-16.75384 19.39396,-25.022 l 11.84713,-15.0291 18.89612,22.7131 c 40.71774,48.94399 46.71963,54.32985 53.27241,47.77747 4.18745,-4.18721 1.89248,-9.33717 -10.08357,-22.60719 -6.56068,-7.26861 -12.89199,-14.44057 -14.06086,-15.93993 -1.9127,-2.45174 -0.41779,-4.96747 14.53749,-24.59306 26.72667,-35.06797 111.77725,-142.5457 112.77297,-142.50635 0.49981,0.0163 2.98646,2.95231 5.51312,6.52954 8.94561,12.64431 126.42379,158.94345 143.7916,179.05703 4.93917,5.72203 9.38565,6.3378 13.80136,1.92232 5.20289,-5.20252 3.7707,-7.96481 -18.56775,-35.89401 -14.10915,-17.64612 -21.22453,-27.74122 -20.45315,-29.02026 0.64937,-1.07829 10.85491,-14.01225 22.67746,-28.75014 l 21.49115,-26.80138 6.0586,6.81554 c 5.2619,5.91089 70.23721,86.81794 90.60393,112.81883 l 7.17607,9.1562 -3.35766,5.96823 c -15.85655,28.20471 -38.61267,44.39904 -117.16332,83.35907 -31.28803,15.51709 -72.44247,37.28469 -91.46717,48.37059 -36.91594,21.51851 -38.59198,22.54821 -84.55587,52.39002 -38.0415,24.69826 -53.77416,32.62316 -74.23928,37.40856 l -4.27915,0.99559 0.19604,-23.105 c 0.19686,-22.93524 0.74324,-25.35312 4.65519,-20.6425 2.75103,3.31356 16.94046,11.35014 20.07713,11.36979 10.5671,0.0591 11.2202,-11.1733 0.97976,-16.84021 -15.73846,-8.71286 -24.25568,-18.85104 -24.25568,-28.85077 v -6.7149 l 5.07887,3.87113 c 14.36102,10.956 27.20553,11.75472 27.20553,1.69989 0,-3.82912 -1.22649,-4.97349 -14.30449,-13.37155 -10.35064,-6.64681 -17.68546,-16.73016 -18.91729,-26.0176 -1.14528,-8.6381 -3.30627,-11.02446 -9.34745,-10.33185 -4.43145,0.50766 -4.72796,1.13307 -7.58914,16.28418 -0.98388,5.22222 -10.7344,15.22755 -20.26249,20.79609 -10.4569,6.11162 -12.28156,8.70625 -9.86114,14.02291 2.8533,6.25721 19.34113,2.56285 26.37405,-5.90997 3.06584,-3.69531 4.71346,-2.92189 4.71346,2.22949 0,11.28658 -8.24216,22.42404 -23.44539,31.68397 -10.05546,6.12339 -11.66856,10.93036 -5.10005,15.23563 4.6322,3.03416 13.54192,-0.29527 22.99522,-8.59489 l 5.82561,-5.1103 -0.81558,26.57893 c -0.44866,14.61591 -1.19599,26.95931 -1.66826,27.43155 -0.47227,0.47224 -13.20877,-1.3314 -28.3018,-4.00352 -15.09303,-2.67603 -31.70356,-5.30867 -36.90249,-5.85173 l -9.45865,-0.99027 v -17.51806 -17.51805 l 9.46393,7.87992 c 19.08373,15.8792 33.58193,19.15593 33.58193,7.57812 0,-3.69922 -1.03437,-5.28553 -4.79288,-7.33978 -22.16136,-12.10122 -37.9716,-31.80613 -38.18413,-47.58687 -0.0865,-6.37137 -0.79509,-6.5716 14.73874,4.19947 16.60825,11.51089 27.64967,13.93329 30.43609,6.67254 1.79855,-4.687 -0.8783,-8.11673 -10.23716,-13.10676 -19.93776,-10.62546 -35.00652,-28.48522 -35.00652,-41.49155 v -7.37686 l 7.43556,5.34332 c 14.37675,10.32638 26.95229,14.12164 30.92334,9.33626 3.7152,-4.4745 1.12564,-8.80857 -8.87079,-14.88081 -21.68912,-13.15982 -29.46574,-22.9319 -29.47753,-37.00079 -0.008,-7.29617 -0.58244,-9.15216 -3.43179,-11.14738 -6.70629,-4.69883 -11.94778,0.19928 -11.94778,11.14738 0,12.91582 -8.67777,23.33715 -28.89495,34.70246 -7.45796,4.19508 -8.77018,5.58303 -8.77018,9.3098 0,9.35041 10.11484,9.06189 25.23542,-0.70962 11.64153,-7.52441 12.42955,-7.53794 12.41383,-0.34424 -0.0393,13.95084 -15.28631,32.61061 -35.40905,43.33444 -7.77282,4.14787 -9.16203,5.52073 -9.16206,9.09796 0,12.06188 14.18683,9.36671 34.39219,-6.52426 11.13775,-8.76009 10.8131,-8.7907 9.52221,0.95321 -2.08586,15.70605 -16.37158,33.45079 -35.88037,44.55243 -9.20536,5.24189 -11.30686,8.16275 -9.43747,13.11736 2.89662,7.66607 16.82637,3.00708 33.68253,-11.25857 5.41935,-4.58864 10.23352,-8.34069 10.69793,-8.34069 h 0.0108 0.005 0.0108 v 0.0108 h 0.005 l 0.0109,0.005 c 0.42761,0.43564 0.56663,7.60255 0.30717,16.29477 l -0.48722,16.32124 -10.27425,-0.93204 c -44.27549,-4.01799 -117.95107,-2.59604 -163.61978,3.14564 l -0.42368,0.0529 a 474.48276,474.45306 0 0 0 1.69887,16.74459 c 19.70136,-3.27063 88.42709,-7.44857 111.33241,-6.29125 40.00931,2.01885 48.44079,2.65285 73.0265,5.4863 14.37674,1.65285 46.5415,6.41182 71.48538,10.57543 84.22969,14.05707 112.36063,14.18815 188.32561,0.84731 66.03937,-11.59749 113.23999,-18.12859 161.16775,-20.60543 47.92776,-2.47683 96.57981,-0.90452 165.51579,3.71757 71.25012,4.7775 116.73125,6.85938 150.18385,6.87908 8.4451,0.003 16.0976,0.18681 21.0992,0.46071 a 474.48276,474.45306 0 0 0 2.3462,-24.59306 c -28.1224,1.10467 -160.94674,-0.0108 -198.99179,-1.91703 -108.10704,-5.42685 -173.38874,-2.06186 -267.50076,13.774 -74.71739,12.56953 -91.98695,14.44526 -131.44133,14.30362 -43.11059,-0.15347 -47.86057,-1.17487 -32.75575,-7.10151 14.27052,-5.59607 30.07655,-14.80412 69.65295,-40.58067 56.63723,-36.88607 90.49009,-55.94455 161.64967,-91.00069 90.68807,-44.68201 108.51559,-59.85633 137.21398,-116.76942 14.45943,-28.68088 19.7052,-36.26952 26.01394,-37.64687 1.2968,-0.28415 3.42119,-0.39163 5.98976,-0.36013 7.70579,0.0949 19.45209,1.46195 25.16657,3.1827 3.77819,1.13732 12.03926,5.56965 18.35595,9.85525 15.38029,10.43657 21.90411,13.6143 33.34886,16.24708 23.13346,5.3206 70.3246,6.62791 106.58725,2.94439 l 2.4361,-0.2489 a 474.48276,474.45306 0 0 0 -8.2723,-16.66018 c -4.5958,1.23484 -13.6614,1.30987 -28.84201,1.90645 -44.11023,1.73157 -70.57585,-2.66247 -91.20233,-15.12972 -25.4043,-15.35571 -33.84606,-18.15218 -56.10581,-18.57718 -19.97319,-0.38175 -27.98853,5.93434 -41.7907,32.90726 l -8.76487,17.12088 -10.56021,-13.62575 c -21.90468,-28.29084 -81.94135,-103.11558 -88.95068,-110.86431 -13.00714,-14.37191 -12.73753,-14.53359 -47.02845,28.87726 -17.61178,22.29772 -22.39553,27.48529 -23.69428,25.71045 -0.89734,-1.22389 -6.95686,-8.73724 -13.46241,-16.68665 -36.47122,-44.57574 -64.4744,-79.51076 -76.02931,-94.86653 -9.28756,-12.33979 -14.31129,-19.0994 -19.85999,-19.12263 z m 384.56878,213.43648 c -6.78959,0.0355 -14.12408,1.77752 -20.88742,5.2268 -11.70842,5.96995 -11.7363,6.12157 -12.77924,55.77394 l -0.9321,44.25059 -6.40815,14.1712 c -3.52632,7.79198 -10.13762,22.76932 -14.6911,33.28853 -11.07478,25.58374 -13.94568,28.19077 -24.82762,22.52778 -10.66548,-5.54885 -11.62805,-8.08903 -12.84809,-33.98759 -1.70017,-36.09116 -7.06307,-44.72726 -26.91425,-43.30264 -11.96029,0.85397 -20.98723,5.69311 -27.77221,14.8861 -17.36387,23.52949 -26.22397,28.39924 -51.94313,28.53304 -24.44796,0.12609 -29.22322,2.72722 -49.40105,26.91786 -15.13631,18.14984 -33.17175,25.64309 -75.86516,31.53039 -22.35028,3.08138 -27.54987,6.92135 -19.82822,14.64252 3.91595,3.91569 12.42154,3.3671 42.88699,-2.74845 41.14674,-8.26423 44.97236,-10.44524 70.46324,-40.17292 11.49195,-13.39989 14.55186,-14.70406 33.7143,-14.34594 25.05798,0.46831 38.96085,-5.12234 52.6528,-21.16677 17.87945,-20.9597 17.42168,-20.56194 24.63167,-20.72726 9.42182,-0.21256 10.65449,2.79311 10.68204,26.08647 0.0434,34.33597 8.60502,47.43351 34.12741,52.18347 11.2558,2.09365 22.95397,-5.76093 28.51891,-19.13324 1.25548,-3.01842 7.32442,-16.55883 13.48362,-30.08466 16.39572,-36.00062 16.13161,-34.67574 16.13161,-80.31405 0,-44.06811 -0.0393,-43.91706 10.76146,-46.50654 12.55852,-3.01052 12.19046,-4.24938 12.66273,41.88871 0.45258,44.32392 0.6223,45.06898 9.92998,41.7987 l 4.31094,-1.51458 0.77322,-37.57802 0.76792,-37.57805 6.91656,0.4766 c 33.83044,2.34548 32.32322,0.57588 33.79907,39.65394 1.21217,32.05345 1.20656,32.06178 11.99012,48.58244 4.19927,6.42642 9.55452,17.09459 11.9001,23.69811 18.01713,50.711 33.57363,61.80624 84.50823,60.29112 l 4.8088,-0.14832 a 474.48276,474.45306 0 0 0 0.085,-8.97615 474.48276,474.45306 0 0 0 -0.074,-8.22416 l -8.6801,0.28597 c -38.5926,1.26326 -50.1302,-6.75993 -63.2555,-43.98052 -5.33268,-15.12356 -9.75156,-24.31751 -17.52438,-36.46595 -6.75349,-10.55855 -8.35586,-19.09164 -8.36768,-44.37236 -0.0163,-37.80302 -4.33924,-43.2337 -36.31994,-45.65392 -15.59285,-1.18065 -20.02776,-2.06304 -23.56188,-4.67608 -4.58894,-3.39229 -10.83554,-5.06467 -17.62507,-5.03088 z M 951.712,557.14854 c -3.59086,0.14317 -7.09566,1.02165 -9.78173,2.71138 -4.93524,3.10106 -9.5158,8.87199 -12.40851,15.64867 -3.41216,8.00452 -9.65803,13.40716 -20.62261,17.83051 -12.8537,5.18679 -15.63605,8.90816 -11.44464,15.29917 7.15494,10.92064 35.02549,-4.2545 46.09634,-25.09615 5.43113,-10.22798 9.4227,-11.80429 16.54998,-6.53483 8.76463,6.47756 14.50519,-5.86906 6.85833,-14.75902 -3.04025,-3.53443 -9.26261,-5.3385 -15.24716,-5.09973 z M 845.24657,673.57901 c -125.12457,-3.53786 -199.57931,0.42734 -279.00367,14.85435 -9.18587,1.67024 -19.27516,3.29191 -27.65038,4.48012 h 103.25073 c 36.92217,-4.25161 244.25455,-4.74247 260.09698,-0.11658 v 0.005 c 14.35709,4.18721 13.77709,4.60897 -11.03688,8.09176 -40.76887,5.72201 -39.56049,4.08963 -40.78446,55.20202 -1.3145,54.9218 -3.63733,61.11243 -25.57436,68.17638 -22.79106,7.33944 -25.57319,13.36353 -26.73421,57.87631 -1.27513,48.79054 -9.86681,62.83869 -43.26828,70.7448 l -4.98881,1.18092 v 16.35303 c 21.50793,-1.53586 48.6756,-18.25488 57.1438,-35.69279 4.81324,-9.90924 6.99753,-27.74491 7.01719,-57.19319 0.019,-28.67298 0.65964,-29.94983 19.5899,-39.27263 26.47085,-13.03784 32.63298,-25.71834 32.67628,-67.22846 0.0163,-15.18074 5.36627,-24.88364 12.26022,-25.24973 2.69762,-0.14316 5.63517,1.14409 8.57951,4.08825 4.28192,4.27772 4.25036,3.99066 4.42748,43.112 l 0.11659,26.1341 6.0745,10.69196 6.06921,10.68134 1.08567,25.4404 c 1.61359,37.87776 13.09026,68.26447 27.10493,71.78272 0.49233,0.12311 0.93169,0.24268 1.31339,0.37069 a 474.48276,474.45306 0 0 0 72.338,-91.29196 c -2.1809,-4.88022 -2.5262,-20.00232 -2.5262,-60.90544 0,-69.09699 -1.8766,-65.05534 31.1352,-67.28671 13.4838,-0.91183 21.3733,-1.38445 25.9292,-1.42456 a 474.48276,474.45306 0 0 0 3.9878,-16.95669 c -5.4796,0.60815 -14.0007,1.37597 -23.3976,2.0812 -54.99614,4.13604 -52.64965,0.59482 -53.88151,81.52144 -1.10197,72.3515 -2.92155,79.10663 -21.33227,79.10663 -22.00397,0 -24.36604,-8.54928 -25.42079,-92.23456 -1.23183,-97.67553 1.96682,-94.3953 -94.59708,-97.12251 z m -602.76909,2.74315 c -37.17115,-1.51997 -70.84448,0.22695 -101.33361,5.22684 -3.5668,0.58547 -6.23515,1.06317 -8.25114,1.26036 a 474.48276,474.45306 0 0 0 3.26232,16.65487 c 2.58378,-0.60271 6.45599,-1.05141 12.03779,-1.89057 18.21595,-2.73703 40.78109,-4.23462 64.79124,-4.45894 24.01004,-0.22423 49.45664,0.82331 73.43428,3.16681 13.10552,1.27898 40.08509,5.12197 59.95595,8.52602 56.50735,9.68882 70.88207,11.78802 94.26346,13.77932 14.98272,1.27605 20.51944,1.64553 21.90423,2.73258 h 23.31298 c 0.019,-0.0136 0.0382,-0.0279 0.0583,-0.0423 v -18.90022 c -12.34454,4.24749 -56.74307,-0.0109 -121.11944,-11.68225 -44.47622,-8.06549 -85.14516,-12.85243 -122.31631,-14.37243 z m -19.69581,46.57539 c -32.46088,0.003 -52.01149,1.32237 -69.9972,4.73432 -4.0911,0.77542 -7.04306,1.37207 -9.25211,1.53043 a 474.48276,474.45306 0 0 0 5.00474,16.54369 c 2.91155,-0.56826 6.86982,-1.26383 11.14276,-1.93824 18.92041,-2.97709 38.22711,-4.50363 59.18807,-4.59663 20.96101,-0.093 43.57903,1.25304 69.09157,4.03529 28.03328,3.05779 45.59197,6.30047 133.36377,24.61955 l 31.03981,6.47131 v -19.07499 c -1.12626,2.32058 -8.20122,0.4814 -46.8007,-7.8164 C 311.11974,727.10337 279.72981,722.89359 222.78167,722.89755 Z M 211.98311,773.021 c -15.81747,0.49995 -30.57904,1.96222 -44.39103,4.37953 l -7.06486,1.23918 a 474.48276,474.45306 0 0 0 6.7312,15.75989 c 7.19069,-2.16211 23.15707,-3.57199 42.08198,-4.06707 23.58063,-0.61686 51.75767,0.18031 73.29131,2.67961 30.5442,3.54182 44.96634,6.20708 99.87189,18.43421 27.89949,6.21392 55.05707,12.12855 60.3426,13.14385 l 9.51688,1.83759 v -26.73781 c -0.20065,6.91084 -0.75113,9.44216 -1.85359,9.44216 -1.95991,0 -22.44803,-4.54876 -64.92891,-14.3989 C 316.37796,778.6858 259.43559,771.52122 211.98311,773.021 Z m 21.23166,50.99727 c -11.6235,0.0287 -22.39977,0.96123 -33.67724,2.61604 -5.98018,0.87659 -11.61186,1.64977 -15.15713,2.09181 a 474.48276,474.45306 0 0 0 9.28389,16.11471 c 5.67625,-1.17447 16.87961,-2.63514 31.26225,-4.01943 7.79637,-0.75162 32.52236,0.47684 47.65866,2.36188 21.05153,2.62096 48.2016,8.30978 101.46601,21.28856 27.48232,6.69405 56.35819,13.3798 64.18217,14.84375 l 14.1297,2.64254 v -17.07852 l -7.00659,-0.95853 c -3.90015,-0.53127 -25.51653,-5.44285 -48.03999,-10.90905 -86.71504,-21.03841 -129.2312,-29.07996 -164.10173,-28.99376 z m 8.4683,47.15789 c -11.9696,-0.34264 -21.86938,0.5242 -29.04325,2.71138 a 474.48276,474.45306 0 0 0 11.21164,15.20386 c 19.4339,-6.56128 89.50954,6.75846 153.43029,29.30091 37.89197,13.36447 62.44443,21.3039 69.24515,22.39006 3.5065,0.56133 4.98185,1.02832 5.83618,2.74845 v -32.73781 c -0.19658,7.79414 -0.68754,13.40694 -1.25515,13.63106 h -0.005 c -0.003,-1.9e-4 -0.0109,-2.7e-4 -0.0163,0 h -0.0108 c -2.62898,0 -39.5231,-11.88235 -63.19184,-20.35124 -55.7229,-19.93936 -110.29289,-31.8688 -146.20171,-32.89667 z m 629.52979,15.19326 c -7.18616,0.38173 -10.44652,10.08321 -11.35462,31.96993 -1.44045,34.59176 -13.32052,50.67705 -48.22535,65.30083 -19.2333,8.0596 -29.35307,20.43352 -30.78564,37.63102 l -0.57726,6.9162 -9.78699,1.864 c -108.13946,20.5298 -201.76036,8.3869 -316.29808,-38.04934 h -1.82184 v -0.7467 c -16.8243,-6.8635 -32.72805,-12.23442 -50.64031,-20.69016 -75.09521,-35.45363 -114.3334,-47.53657 -139.89904,-43.10143 l -4.37448,0.75729 a 474.48276,474.45306 0 0 0 15.03003,14.99732 c 5.16231,-0.10872 16.75535,1.54299 28.66725,4.29477 17.87155,4.12426 45.64677,15.56325 95.96344,39.53743 122.27908,58.26692 224.90696,77.77032 338.21291,64.25232 7.27221,-0.8674 12.82099,-1.4738 16.59764,-1.7635 a 474.48276,474.45306 0 0 0 153.04899,-85.95921 c -1.39414,-0.3967 -2.83972,-1.42905 -4.91997,-2.87023 -11.05116,-7.66212 -13.1569,-13.78775 -14.05028,-40.89841 -0.8501,-25.86709 -1.79599,-29.1968 -9.16736,-32.25059 -2.09644,-0.86852 -3.96069,-1.27964 -5.61904,-1.19154 z" /><path
           style="baseline-shift:baseline;display:inline;overflow:visible;opacity:1;vector-effect:none;fill:#2c2d3c;stroke-linecap:round;enable-background:accumulate;stop-color:#000000;stop-opacity:1"
           d="m 600.90234,111.83594 c -129.34223,-0.21259 -253.48958,50.91112 -345.17382,142.13867 -91.68425,91.22754 -143.42246,215.11328 -143.84766,344.44726 -0.4252,129.334 50.49569,253.56034 141.57812,345.38868 91.08244,91.82835 214.89354,143.76455 344.23438,144.40235 129.34085,0.6378 253.65695,-50.0763 345.64062,-141.00196 91.98372,-90.92568 144.12622,-214.64271 144.97652,-343.97461 a 7.4773998,7.4773998 0 0 0 -0.6523,-1.60547 7.4773998,7.4773998 0 0 0 0.6641,-1.60352 c 0,-129.33469 -51.3291,-253.39148 -142.71293,-344.91992 C 854.22553,163.57899 730.24459,112.04851 600.90234,111.83594 Z m -0.0234,14.95508 c 125.38621,0.20606 245.55794,50.1541 334.14648,138.88281 88.58848,88.72871 138.34178,208.97535 138.34178,334.35351 a 7.4773998,7.4773998 0 0 0 0.6445,1.5586 7.4773998,7.4773998 0 0 0 -0.6543,1.55273 c -0.8243,125.37546 -51.3671,245.29311 -140.53706,333.4375 C 843.65029,1024.7206 723.15049,1073.8761 597.76562,1073.2578 472.38077,1072.6396 352.37447,1022.2987 264.07812,933.2793 175.78178,844.25986 126.42374,723.85014 126.83594,598.47266 127.24813,473.09518 177.39564,353.01124 266.27539,264.57422 355.15514,176.1372 475.4927,126.58493 600.87891,126.79102 Z"
           id="path9" /><path
           style="baseline-shift:baseline;display:inline;overflow:visible;opacity:1;vector-effect:none;fill:#2c2d3c;stroke-linecap:round;enable-background:accumulate;stop-color:#000000;stop-opacity:1"
           d="m 750.9082,953.61133 c 0.25029,-0.0588 -0.56555,0.0611 -0.66015,0.0527 -0.001,0 -0.008,-0.002 -0.01,-0.002 -1.1474,-0.006 -1.16146,0.0511 -1.80664,0.11523 h -0.002 -0.002 c -1.96217,0.19573 -4.06914,0.41314 -6.29296,0.77149 -1.56881,0.25289 -2.25839,0.47799 -2.32227,0.48828 l -0.11719,0.0176 -0.11523,0.0234 c -0.002,4.8e-4 -0.12228,0.0158 -0.41211,0.0625 -0.11311,0.0182 -0.19349,0.0317 -0.26367,0.043 a 8.4352503,8.4352503 0 0 0 -0.002,0 c -0.0191,0.003 -0.0586,0.01 -0.0723,0.0117 -0.003,4.4e-4 -0.011,0.002 -0.0117,0.002 -9.1e-4,1.4e-4 -0.0145,0.002 -0.0137,0.002 -0.003,4.7e-4 -0.007,0.002 -0.01,0.002 4e-5,0 2.64959,16.66121 2.65625,16.66016 0.0133,-0.002 0.0145,-0.003 0.0176,-0.004 0.004,-6.1e-4 0.0136,-10e-4 0.0176,-0.002 -7e-4,1.1e-4 0.0149,-0.004 0.0137,-0.004 0.002,-3e-4 0.004,3.8e-4 0.006,0 0.003,-4e-4 0.007,-0.002 0.01,-0.002 0.0115,-0.002 0.0482,-0.007 0.0645,-0.01 0.0685,-0.011 0.15438,-0.0241 0.27148,-0.043 0.23292,-0.0375 0.5464,-0.0888 0.70508,-0.11523 1.48459,-0.24477 2.20391,-0.46724 2.26172,-0.47656 1.6087,-0.25923 3.37978,-0.45093 5.28125,-0.64063 0.48325,-0.048 0.99678,-0.0267 0.0566,-0.0312 -0.23503,-10e-4 -0.23629,0.20481 -2.05469,-0.27343 -0.2273,-0.0598 -0.49693,-0.13853 -0.83789,-0.26758 -0.34096,-0.12905 -1.28179,-0.6136 -1.28125,-0.61328 5e-5,3e-5 -0.14768,-0.11847 -0.17773,-0.14258 a 8.4352503,8.4352503 0 0 0 2.76367,-7.06446 8.4352503,8.4352503 0 0 0 -4.47461,-5.75585 c 0.27579,-0.30619 0.46816,-0.54022 0.65039,-0.69727 0.35101,-0.30249 0.63796,-0.50401 0.87891,-0.66211 1.92758,-1.2648 1.93332,-0.94331 2.18945,-1.01953 0.0934,-0.0278 0.10111,-0.0271 0.16016,-0.043 0.005,0.0233 3.28901,16.51368 3.28906,16.51367 9e-5,-10e-6 0.136,-0.021 0.15039,-0.0234 0.0288,-0.005 0.0297,-0.005 0.0332,-0.006 0.0121,-0.002 0.0905,-0.015 0.10547,-0.0176 0.0544,-0.009 0.088,-0.015 0.38281,-0.0625 -0.37676,0.0606 0.60447,0.15979 2.83203,-0.36328 a 8.4352503,8.4352503 0 0 0 6.28321,-10.14063 8.4352503,8.4352503 0 0 0 -10.14063,-6.2832 z"
           id="path21" /><path
           inkscape:connector-curvature="0"
           style="display:inline;fill:#2c2d3c;fill-opacity:1;stroke:#000000;stroke-width:0;stroke-linecap:round;stroke-linejoin:round;stroke-dasharray:none"
           id="path5884"
           shaper:cutDepth="0"
           d="m 483.02972,692.13077 h 234.14104 a 32.721185,32.719138 0 0 1 32.72119,32.71914 v 223.31501 a 32.721185,32.719138 0 0 1 -32.72119,32.7191 H 483.02972 a 32.721185,32.719138 0 0 1 -32.72119,-32.7191 V 724.84991 a 32.721185,32.719138 0 0 1 32.72119,-32.71914 z" /><path
           inkscape:connector-curvature="0"
           style="fill:#67ea94;fill-opacity:1;stroke-width:130.881;stroke-linecap:round;stroke-linejoin:round"
           id="path5864"
           shaper:cutDepth="0"
           d="M 736.80347,869.77382 H 463.39701 v 78.3911 a 19.632711,19.631482 0 0 0 19.63271,19.63145 h 234.14104 a 19.632711,19.631482 0 0 0 19.63271,-19.63145 z" /><path
           inkscape:connector-curvature="0"
           style="fill:#2c2d3c;fill-opacity:1;stroke:none;stroke-width:4.94572;stroke-linecap:round;stroke-linejoin:round;stroke-dasharray:none"
           id="path5876"
           shaper:cutDepth="0"
           d="m 481.58157,890.2552 v 0 l 4.12041,-0.7329 4.16612,-0.40572 v 0 l 4.18341,-0.2094 4.18811,-0.0808 v 0 l 5.16655,0.19631 2.54412,0.24867 2.49715,0.43189 2.43545,0.68056 2.37686,0.90304 2.3374,1.0601 2.31768,1.13863 v 0 l 1.56557,1.48283 1.4713,1.52864 1.2828,1.62025 0.54121,0.86379 0.45901,0.90305 0.37512,0.94231 0.30116,0.98157 0.42276,2.03644 0.25365,2.11889 0.16911,2.16077 v 0 l -0.11012,2.29427 -0.29161,2.255 -0.61057,2.18695 -0.81489,2.14376 v 0 l -1.05101,1.75243 -1.20257,1.61895 -1.45402,1.39776 -1.60418,1.2695 v 0 l -2.01101,1.13863 -2.07543,0.98157 -2.17723,0.73291 -2.23552,0.58894 v 0 l -2.84696,0.49733 -2.85919,0.36646 -2.87831,0.18323 -2.8892,0.067 h -5.35438 v 20.73632 h -10.70875 z" /><path
           inkscape:connector-curvature="0"
           style="fill:#2c2d3c;fill-opacity:1;stroke:none;stroke-width:0.130881cm;stroke-linecap:round;stroke-linejoin:round"
           id="path5878"
           shaper:cutDepth="0"
           d="m 709.48245,895.99165 v 0 l 2.07557,2.05608 0.97116,1.07318 0.89133,1.13863 0.79447,1.20406 0.71725,1.25642 1.30623,2.61491 v 0 l 1.06409,3.28108 0.44762,1.65559 0.34816,1.67391 0.23297,1.69616 0.14529,1.71186 0.14135,3.45122 v 0 l -0.14528,3.40802 -0.14659,1.69093 -0.23429,1.67391 -0.34815,1.65297 -0.44632,1.63465 -1.05885,3.23919 v 0 l -1.31212,2.62931 -0.71987,1.2695 -0.79578,1.21716 -0.89001,1.15171 -0.96855,1.08627 -2.06942,2.08487 v 0 l -2.42477,1.79432 -1.24864,0.82452 -1.29314,0.74599 -1.34471,0.65439 -1.3862,0.57585 -2.84151,1.02084 v 0 l -3.36348,0.79835 -3.38965,0.60203 -3.4318,0.30102 -3.45601,0.12171 v 0 l -4.03936,-0.0865 -4.03466,-0.2094 v 0 l -4.31671,-0.44498 -4.26736,-0.78526 v -57.19475 0 l 4.30898,-0.78526 4.35991,-0.40572 v 0 l 4.07784,-0.18323 4.08125,-0.0716 v 0 l 3.42041,0.11622 3.39803,0.28793 3.35955,0.57586 3.33547,0.75908 v 0 l 2.82449,0.98157 1.37874,0.54969 1.33856,0.6282 1.2879,0.71982 1.24603,0.81144 z" /><path
           inkscape:connector-curvature="0"
           style="fill:#67ea94;fill-opacity:1;stroke-width:130.881;stroke-linecap:round;stroke-linejoin:round"
           id="path5866"
           shaper:cutDepth="0"
           d="m 509.37333,900.11348 v 0 l -1.11055,-0.53659 -1.13739,-0.45807 -2.38406,-0.58895 v 0 l -2.85816,-0.35336 -2.87867,-0.10994 v 0 l -3.36026,0.0497 -3.35396,0.20941 v 20.05644 h 5.1844 v 0 l 3.06512,-0.0839 1.51837,-0.11373 1.50134,-0.19631 1.47889,-0.31411 1.4572,-0.4188 2.87769,-1.03393 v 0 l 1.89086,-1.59407 0.79146,-0.87688 0.60743,-0.98157 0.403,-1.08627 0.24501,-1.17789 0.22669,-2.48797 v 0 l -0.0643,-1.25641 -0.17473,-1.23024 -0.36988,-1.19098 -0.49593,-1.1648 v 0 l -0.61882,-0.91614 -0.69853,-0.82452 -0.83138,-0.69364 z" /><path
           inkscape:connector-curvature="0"
           style="fill:#67ea94;fill-opacity:1;stroke-width:130.881;stroke-linecap:round;stroke-linejoin:round"
           id="path5868"
           shaper:cutDepth="0"
           d="m 686.15267,898.07377 v 0 l -3.40352,0.0362 -3.39568,0.22249 v 41.13266 0 l 2.46469,0.12747 v 0 l 4.1645,0.0425 v 0 l 4.42691,-0.26176 2.14939,-0.3141 2.07269,-0.52351 1.97243,-0.79834 1.8799,-1.04702 1.81773,-1.21715 1.78671,-1.31007 v 0 l 1.23686,-1.71056 1.15963,-1.73804 1.0052,-1.79432 0.77484,-1.87677 0.51699,-1.971 0.31674,-2.04298 0.30104,-4.20637 v 0 l -0.27486,-4.20768 -0.30234,-2.0456 -0.49998,-1.97493 -0.75521,-1.88462 -0.98818,-1.80217 -1.14262,-1.74721 -1.22116,-1.71971 v 0 l -1.78566,-1.29568 -1.81628,-1.20407 -1.87768,-1.03392 -1.96903,-0.77217 -2.06667,-0.51042 -2.14114,-0.30102 z" /><path
           inkscape:connector-curvature="0"
           style="fill:#2c2d3c;fill-opacity:1;stroke:none;stroke-width:3.46288;stroke-linecap:round;stroke-linejoin:round;stroke-miterlimit:4;stroke-dasharray:none;stroke-opacity:1"
           id="path5880"
           shaper:cutDepth="0"
           d="m 631.75903,926.03384 h -6.7992 v 22.26589 H 614.2511 v -58.04453 0 l 4.14329,-0.71982 4.18569,-0.4188 v 0 l 3.94958,-0.2094 3.95442,-0.0831 v 0 l 5.12663,0.19631 2.52372,0.24867 2.47634,0.43189 2.41403,0.68056 2.35475,0.90305 2.31483,1.0601 2.29493,1.13862 v 0 l 1.53384,1.44881 1.44301,1.49199 1.26172,1.58099 0.53401,0.83761 0.45417,0.87687 0.37303,0.91614 0.29972,0.9554 0.42407,1.99063 0.25784,2.07047 0.17539,2.11104 v 0 l -0.42014,2.78897 -0.55626,2.69083 -0.37172,1.28259 -0.45678,1.21715 -0.55888,1.13862 -0.67929,1.0601 -0.80756,0.96849 -0.92274,0.87687 -1.02221,0.81144 -1.10467,0.74599 -2.39048,1.37159 -2.52267,1.2695 v 0 l 1.86315,2.35186 1.79142,2.40681 v 0 l 2.12229,3.01017 2.0422,3.06512 v 0 l 2.0897,3.32689 1.98984,3.38708 v 0 l 1.81302,3.34259 1.6714,3.41457 h -11.98355 v 0 l -1.69862,-3.1057 -1.78605,-3.05597 v 0 l -3.78205,-6.03341 v 0 l -1.85869,-2.78374 -1.92349,-2.73925 v 0 l -3.48454,-4.63172 v 0 z" /><path
           inkscape:connector-curvature="0"
           style="fill:#67ea94;fill-opacity:1;stroke:none;stroke-width:130.881;stroke-linecap:round;stroke-linejoin:round;stroke-opacity:1"
           id="path5870"
           shaper:cutDepth="0"
           d="m 641.57539,900.11348 v 0 l -1.08896,-0.53659 -1.11514,-0.45807 -2.34297,-0.58895 v 0 l -2.8792,-0.35336 -2.90015,-0.10732 v 0 l -3.14751,0.0586 -3.14176,0.19632 v 19.03665 h 4.67442 v 0 l 3.44986,-0.092 3.43441,-0.32719 v 0 l 1.29053,-0.23558 1.26565,-0.3141 1.22247,-0.44498 1.19366,-0.5366 v 0 l 0.90311,-0.58894 0.82326,-0.66747 0.68715,-0.81144 0.60469,-0.88996 v 0 l 0.46333,-1.13862 0.34292,-1.16481 0.15837,-1.21715 0.0551,-1.23024 v 0 l -0.0601,-1.19097 -0.1623,-1.1648 -0.34161,-1.12554 -0.45678,-1.09937 v 0 l -0.58899,-0.88996 -0.66751,-0.81143 -0.7984,-0.68056 z" /><path
           inkscape:connector-curvature="0"
           style="fill:#67ea94;fill-opacity:1;stroke-width:130.881;stroke-linecap:round;stroke-linejoin:round"
           id="path5874"
           shaper:cutDepth="0"
           d="M 736.80347,856.68617 V 724.84991 A 19.632711,19.631482 0 0 0 717.17076,705.21843 H 483.02972 a 19.632711,19.631482 0 0 0 -19.63271,19.63148 v 131.83626 z" /><path
           inkscape:connector-curvature="0"
           style="fill:#2c2d3c;fill-opacity:1;stroke:none;stroke-width:0.130881cm;stroke-linecap:round;stroke-linejoin:round"
           id="path5882"
           shaper:cutDepth="0"
           d="m 560.32488,905.55245 v 0 l 2.76218,-9.51865 h 9.17892 v 0 l 2.88967,9.56053 v 0 l 3.18717,9.94269 v 0 l 3.31466,9.77255 v 0 l 3.18717,9.05142 v 0 l 1.29969,-4.97592 1.16487,-5.00996 v 0 l 2.37975,-11.21743 v 0 l 2.33721,-11.85479 v 0 l 2.16732,-11.89799 h 11.04877 v 0 l -1.5006,7.71386 -1.58383,7.69554 -1.7248,7.66544 -1.81079,7.64712 v 0 l -1.8426,7.09875 -1.94717,7.06864 -2.12452,7.0176 -2.23277,6.98619 h -10.30507 v 0 l -3.4195,-9.2887 -3.28928,-9.33477 -3.08047,-9.40597 -2.95933,-9.44719 v 0 l -3.09667,9.80396 -3.28556,9.74245 v 0 l -3.18613,8.98337 -3.28108,8.94934 h -10.2174 v 0 l -2.26185,-6.97965 -2.14238,-7.01498 -1.94677,-7.07126 -1.83129,-7.10529 v 0 l -1.79134,-7.65078 -1.70933,-7.66623 -1.57503,-7.69502 -1.49576,-7.71203 h 11.47367 v 0 l 2.16724,11.81292 v 0 l 2.37972,11.8548 v 0 l 2.50721,11.26062 v 0 l 1.22403,5.02696 1.32561,5.0008 v 0 l 3.27212,-9.13649 v 0 l 3.27212,-9.77256 v 0 z" /><path
           inkscape:connector-curvature="0"
           style="fill:#2c2d3c;fill-opacity:1;stroke:none;stroke-width:0.130881cm;stroke-linecap:round;stroke-linejoin:round"
           id="path5886"
           shaper:cutDepth="0"
           d="m 501.33353,838.48504 -15.05741,-10.50939 76.11524,-109.04712 15.05742,10.50808 z" /><path
           inkscape:connector-curvature="0"
           style="fill:#2c2d3c;fill-opacity:1;stroke:none;stroke-width:0.130881cm;stroke-linecap:round;stroke-linejoin:round"
           id="path5888"
           shaper:cutDepth="0"
           d="m 646.14209,725.36726 71.43882,102.51743 -16.1079,11.22332 -64.98048,-93.24941 -64.78092,93.40214 -16.13265,-11.18759 71.21878,-102.68455 a 11.779627,11.77889 0 0 1 19.34435,-0.0213 z" /></g><g
         id="g4"><rect
           style="fill:#2c2d3c;stroke-width:2.95298;stroke-linecap:round"
           id="rect3"
           width="19.544064"
           height="16.268684"
           x="450.61801"
           y="1116.5044"
           transform="matrix(0.96567794,-0.2597424,0.26772952,0.96349411,0,0)" /><rect
           style="fill:#2c2d3c;stroke-width:2.4335;stroke-linecap:round"
           id="rect4"
           width="19.170727"
           height="11.263456"
           x="150.06688"
           y="1167.5403"
           transform="matrix(0.95482052,-0.29718306,0.49896629,0.86662139,0,0)" /></g></g></g></svg>
